<svg version="1" xmlns="http://www.w3.org/2000/svg" width="1072" height="1072" viewBox="0 0 804.000000 804.000000"><path d="M404.4 182.3c-19.7 6.9-28.5 9.7-31.2 9.7-1 0-5.2 2.4-9.3 5.3-11.8 8.5-26.9 18.1-33.9 21.7-3.6 1.8-7.9 4.4-9.7 5.7-2 1.6-4.2 2.3-5.9 2.1-2.7-.3-3.3-1-5.2-5.8-.9-2.4-1-2.4-1.7-.5-.5 1.1-1.5 2.8-2.2 3.7-1.3 1.5-1.3 2 .4 4.3 1.5 2.2 2.3 2.5 5.8 2.1 5-.6 8 1.6 6.4 4.6-1.4 2.6-.1 3.8 1.5 1.5 1.8-2.4 4.3-2.1 5.2.5.8 2.7.5 3.4-1.3 3-.7-.2-1.3.4-1.3 1.2 0 .8-.3 1.7-.7 1.9-1.2.8-12.6-1.3-14-2.5-.7-.6-2.2-.8-3.4-.5-1.5.4-2.3-.1-3.1-1.9-1.2-2.5-3.2-3.2-4.3-1.4-1 1.7-5.1 1.1-7-1-1-1.1-2.1-1.7-2.5-1.5-.4.3-1.1-.2-1.4-1.1-.4-1 .5-2.8 2.4-4.7 1.6-1.7 3-3.9 3-4.9 0-.9.9-2.2 2-2.8 1.1-.6 2-2 2-3.1 0-2.2 4.3-9.5 5.9-10 .6-.2 1.2-1.6 1.3-3.2.1-1.5.5-2.7.9-2.7 1.1 0 2.2-8.1 1.2-9.1-1.4-1.4-2.8.3-4.7 5.6-2.2 6-4.2 8.5-6.9 8.5-1.3 0-1.7.5-1.3 1.5.9 2.3-1.4 7.7-4.8 11.3-2.9 3.1-3.1 3.8-2.9 9.8.1 3.6-.2 6.2-.6 5.9-.5-.2-2.3.3-4.1 1.1-3 1.6-3.2 1.9-2.7 5.7.3 2.2 1.3 4.4 2.1 4.9 1.8 1 2.2 5.3.6 6.3-.5.3-1 3.2-1 6.3 0 6.5-1.5 9.4-6.3 11.8-1.8.9-5.1 3.4-7.4 5.5-2.4 2.2-4.7 3.9-5.3 3.9-1.7 0-9.8 7.9-14.8 14.4-5.1 6.8-7.7 13.8-6.2 16.6.5.9.7 1.9.5 2.2-1.4 1.4-.1 14.4 2.5 25.8.6 2.5 1.2 5.4 1.4 6.4.1 1.1.8 2.2 1.4 2.4.7.2 1.2.8 1.2 1.3 0 .6-.5.7-1.2.3-.7-.4-.8-.3-.4.5.9 1.4 4.3.6 6.8-1.6.9-.8 2.2-1.2 2.9-.7.9.5 1.1.1.7-1.4-.4-1.2-.3-2.2.2-2.2.4 0 1 .9 1.3 2 .5 2 2.9 2.6 9.1 2.2 1.9-.2 3.3.4 4.3 1.7 1.1 1.7 1.8 1.9 3.9 1.1 1.4-.6 3-.7 3.6-.4.6.4.8.2.4-.4-1.1-1.8 1.1-2.3 2.7-.7.9.8 3 1.5 4.7 1.5 1.8 0 4.7.7 6.5 1.6 3.3 1.5 3.5 1.5 6.1-1 1.5-1.4 3.1-2.3 3.6-2 .4.3.8-.5.8-1.8s.6-3 1.3-3.7c1-1 .9-1.2-.1-.9-.8.2-1.9-.4-2.4-1.3-.9-1.2-.6-2.1 1-3.7 1.2-1.2 2.6-2.2 3.1-2.2s1.3-.9 1.6-2c.9-2.7 9.4-12 11-12 .7 0 1.5-1.4 1.9-3 .4-2.1 1.1-3 2.5-3 1.1 0 3.2-1.1 4.7-2.5s3.4-2.3 4.1-2.1c.7.3 1.3.1 1.3-.4 0-.6.9-1 2-1 1.2 0 2-.7 2-1.8 0-2.3 3.2-4.2 5.9-3.5 1.2.3 2.7 0 3.5-.6 1-.9 1.5-.9 1.8-.1.7 2.3 3.8-.2 3.8-3.1 0-2.8 1.3-3.9 2.4-2 .7 1 5.7.8 7.5-.3.6-.4 3.2-.8 5.6-.9 2.5-.1 4.5-.5 4.5-1 0-.4 1.9-.7 4.3-.7 4.5 0 6.7-1.3 6.7-4 0-.8.9-2.1 2-2.8 1.2-.7 1.8-1.7 1.5-2.1-.7-1.2 2.1-2.2 4-1.5 3 1.2 8.1-2.3 9.4-6.3.7-2.1 1.1-4.5.9-5.2-.2-.8.6-1.7 1.6-1.9 3.5-.8 4.5-2.4 2.9-4.9-1.7-2.6-.9-4.6 1.7-3.8 2.4.8 7-1.1 7-2.9 0-2.1 5.7-4.9 8.5-4.2 1.7.4 2.7 0 3.8-1.8 1.5-2.3 7.4-3.6 6-1.3-.4.6-.1.7.7.2.7-.4 4.7-.9 8.9-1.1 4.2-.1 11.9-.4 17.1-.6 5.2-.2 13.8.2 19 1 8.6 1.2 24.8 2.8 35.8 3.5 2.3.2 5.6-.3 7.2-1.1 2.3-1.1 3.3-1.2 4.4-.3 1 .9 4.1 1 10.8.4 5.1-.4 10-.7 10.8-.5.8.1 5 .5 9.3.8 4.3.2 8.3.5 8.9.7 1.6.3 3.5-3.2 2.1-4.1-1.3-.8-2.8-5.9-2.5-8.3.2-1.2-1.2-2.2-4.5-3.5-5.4-1.9-12.9-8.5-13.7-12-.4-1.3-2.5-3.4-5-4.9-2.4-1.4-5.1-3.4-6.1-4.5-.9-1-3.1-2.4-4.9-3-2.1-.7-3.7-2.2-4.9-4.9-1.9-4.2-6.8-7.3-12.2-7.8-1.6-.2-3.6-.5-4.3-.8-.7-.3-1.1-.1-.8.4.3.5 0 1.1-.7 1.4-1.5.6-14.4.1-17.7-.6-5.8-1.3-10.5-1.8-9.1-.8.9.6.4.8-1.9.7-2.7-.1-3.7-.8-5.2-3.8-1.1-2.1-2.8-4-3.9-4.3-1-.4-1.9-1.1-1.9-1.6s-1-.9-2.2-.9c-1.3 0-3.6-.7-5.2-1.5-1.8-1-5.7-1.5-11.1-1.5-7.7 0-8.4-.2-9.9-2.5-.9-1.4-1.4-2.5-1.1-2.5.3 0 .1-.9-.5-2-.8-1.5-2.1-2-5-2-2.2 0-4-.4-4-.8 0-.5-1.4-.6-3.1-.4-1.9.3-2.9.1-2.6-.5 1.2-1.9-9.3-.7-16.9 2zM348.5 301c.3.5-.1 1-1 1s-1.3-.5-1-1c.3-.6.8-1 1-1 .2 0 .7.4 1 1zm-59.7 42.5c-.3.3-.9-.2-1.2-1.2-.6-1.4-.5-1.5.5-.6.7.7 1 1.5.7 1.8zm8.2.1c0 .8-.4 1.2-1 .9-.5-.3-1-1-1-1.6 0-.5.5-.9 1-.9.6 0 1 .7 1 1.6zm-17 .9c0 .9-.6 1.2-1.5.9-.8-.4-1.5-1-1.5-1.5s.7-.9 1.5-.9 1.5.7 1.5 1.5zm3.5 2.5c-.3.5-1.2 1-1.8 1-.7 0-.6-.4.3-1 1.9-1.2 2.3-1.2 1.5 0zm-4.5 1c1.8 1.2.2 1.2-2.5 0-1.3-.6-1.5-.9-.5-.9.8 0 2.2.4 3 .9zm10.5 0c.3.5.1 1-.4 1-.6 0-1.1-.5-1.1-1 0-.6.2-1 .4-1 .3 0 .8.4 1.1 1z"/><path d="M474 201.5c.7.8 1.7 1.2 2.2.9.6-.4.5-1-.3-1.5-2.2-1.4-3.3-1-1.9.6zM253.8 391.7l-7.8.4v7.7c0 5.9.5 8.8 2.2 12.4 1.3 2.7 2.6 4.8 3.1 4.8 1.1 0 9.2-4.2 16.1-8.4 3.2-1.9 6.2-3.6 6.7-3.8.4-.2 1.1-2.9 1.5-6.1l.7-5.7h-5.6c-3.1 0-5.9-.5-6.2-1-.3-.6-1.2-.9-1.8-.8-.7.1-4.7.4-8.9.5zM266.4 410.8c-4.5 2.6-10.9 6-14.2 7.7-4.1 2-6.6 3.9-7.4 5.7-1.4 3.1-3.3 3.6-4.1 1.3-.5-1.2-1.1-1.2-4.4.1-2.1.9-5.7 2.9-8.1 4.5-2.4 1.6-4.7 2.9-5.2 2.9-2.9 0-10.8 10.7-13 17.6-.7 2.1-1.6 4.3-2 4.9-.4.5-1.1 2.6-1.5 4.5-1 4.9-8.5 24.2-10.1 26.1-.8.8-3.2 5.2-5.4 9.7-2.2 4.5-5.2 10.1-6.7 12.4-1.4 2.4-4.8 8.6-7.5 13.8-2.6 5.2-4.8 8.8-4.8 8 0-.8 3-7.4 6.6-14.5 3.6-7.2 8.4-16.5 10.5-20.9 2.2-4.3 3.8-8.1 3.5-8.4-1.1-1-11.9 6.4-16.1 11.1-2.4 2.6-9.4 13.9-15.5 25s-11.9 20.9-12.8 21.7c-1.9 1.6-6.2 10.9-6.2 13.3 0 1.4-5.2 13.7-7.1 16.7-.5.8-1.4 2.6-1.9 4-.6 1.4-2 4.2-3.1 6.3-1.1 2.1-1.8 4.4-1.5 5.2.2.7-.6 3.6-2 6.4-1.3 2.8-2.4 5.5-2.4 6.1 0 .8-2.5 6.4-5.1 11.3-.5.9-2 5-3.3 9-1.3 3.9-2.7 8.1-3.1 9.2-.6 1.4-.5 1.7.3 1 .6-.6 2.2-4.1 3.6-7.9 3.3-8.6 5.7-12.6 11.8-19.6 2.7-3 7.6-9.7 10.9-15 3.3-5.2 8.9-14 12.4-19.5 6.3-9.8 9.5-15.8 15.1-28.3 1.6-3.4 3.2-6.2 3.6-6.2 1.1 0 1 1.8-.2 2.5-1.8 1.1-1.1 3.5 1 3.5 2.2 0 2.7 1.5.9 2.6-.6.3-.9 1.5-.6 2.5.3 1 .2 2.1-.2 2.4-.4.2-1.4 2.9-2.1 6.1-1 4-2.1 6.1-3.9 7.2-3.7 2.4-8.4 7.3-10 10.5-.8 1.5-1.8 2.7-2.2 2.7-.8 0-4.3 5.9-3.7 6.1.2 0 2.8.6 5.8 1.2l5.5 1.2-.3 7c-.2 5.1 0 6.6.7 5.5.6-.8 1.1-3.6 1.1-6.3 0-4.7 0-4.7 3.5-4.7 3 0 3.7-.5 6.1-4.5 4-7 3.9-5.3-.2 2.6-2.8 5.3-3.4 7.3-2.5 7.8.9.6.7 1-.7 1.3-2.4.7-6.2 7.6-6.3 11.5 0 2.4-.1 2.5-.9.8-.7-1.8-.8-1.8-1.5.7-.4 1.6-1.1 2.5-1.6 2.2-.5-.3-1.2.3-1.6 1.2-.3 1-2.3 3.4-4.3 5.4l-3.6 3.6.4-3.1c.3-1.6.8-3.5 1.1-4 .4-.6.6-2.6.6-4.5-.2-2.8-.6-3.4-2.1-3.2-3.6.6-4.4 1.1-4.4 3.2 0 1.5.7 2 2.6 2 1.4 0 2.3.4 1.9 1-.3.6-1.9 1-3.4 1-2.5 0-2.7-.3-2.3-3.2.4-2.6.2-3-1.2-2.5-1 .4-2.2.7-2.7.7s-.9 1.1-.9 2.5.5 2.5 1.1 2.5c2 0-.1 1.8-2.8 2.3-2 .4-4.1 2.4-7.2 6.8-2.5 3.5-4.6 5.8-4.8 5.2-.3-.7 0-2 .5-3s.7-2.4.5-3.1c-.4-1-.9-.9-2.4.4-1 .9-1.9 2.3-1.9 3 0 .7-.6 1.7-1.4 2.1-.7.4-3 4.3-5 8.5-4.3 9.4-7 13.1-20.7 28.4-5.8 6.6-12.5 14.8-14.9 18.4-2.4 3.6-5.6 8.1-7.2 10.1-1.5 2-2.8 4-2.8 4.4 0 .4 2.3.4 5 .1 2.9-.4 5-.2 5 .3 0 1.7-2 2.3-3.5 1.1-1-.8-1.6-.7-2.7.7-1.5 2-3.8 2.8-3.8 1.3 0-3-2.3 0-6.1 7.7-2.3 4.9-5 9.9-6.1 11.3-4.1 5.4-11.1 16.5-14.2 22.3-2.7 5.4-3.6 6.3-6.6 6.8-1.9.3-4.7 1.1-6.1 1.7-4.8 1.9-14.4 14.8-16.9 22.7-.7 2.2-2.3 6.5-3.6 9.6-1.3 3.1-2.9 9.5-3.7 14.3L4.3 803h66.8c52.4 0 66.8-.3 67.2-1.3.4-.9.6-.9.6 0 .1 1 67.1 1.3 331.7 1.3 306 0 331.6-.1 331-1.6-2.5-6.4-2.8-10.9-1.7-20.9 1.7-14-.5-31.8-5.1-41-3.5-6.8-11-18.7-15.9-25.1-5.8-7.5-7-10-9.8-19.1-2-6.6-2.8-8-9.7-14.8-8-8-14.6-12.8-25.9-19-3.8-2.1-10.2-5.7-14-8.1-9.4-5.8-23.3-12.2-31.4-14.5-6.7-1.9-25.8-2.8-28.2-1.3-.9.5-1-1.6-.4-7.9 1-12-.5-14.5-13.8-24-1.7-1.2-1.8-3-1.7-22.8.1-19-.2-22.2-2-28.1-1.7-5.5-2.9-7.4-6.9-11-2.6-2.4-7.5-5.3-10.8-6.5-3.2-1.3-7.4-3.6-9.3-5.2l-3.5-2.9 2.2-9.3c3.3-14 3.4-14.7 2.7-18.6-.5-2.6-2.2-5.1-6.3-9-3.1-2.9-6.1-5.3-6.7-5.3-1.3 0-12.5-11.6-14.8-15.3-.9-1.4-1.5-5.9-1.8-12.1-.3-11-.8-10.2 7.5-12 3.5-.8 3.4-2.6-.2-6.5-2.3-2.5-3.7-3.1-6.9-3.1h-4.1l-1.7-6.2c-1.3-4.5-2.8-7.2-5.7-10.1-3.3-3.3-3.8-4.4-3.4-7.1l.5-3.1-10.6.3c-5.8.1-10.8.4-11 .7-.3.3-.7 3.8-1 7.9l-.4 7.4-3.9-.2c-3.2-.1-3.6-.3-2.4-1.2 2-1.5 1.9-2.1-.5-2.7-1.1-.3-2 0-2 .5 0 1.1-16.4.4-19.5-.8-.9-.4-1.8.3-2.4 1.9-1.2 3.2-7.7 4.3-9.2 1.6-.5-1-2.2-2-3.8-2.4-1.8-.4-3.3-1.5-3.6-2.6-.6-1.9-.8-1.9-1.9-.3-1.6 2.1-3.6 1.1-3.6-1.7 0-1.9-.4-2-4-1.4-3.6.6-4.1.4-4.8-1.6l-.9-2.3-1.9 2.2c-2.1 2.5-3.4 2.8-3.4.8 0-1.2-.8-1.1-4 .6-3.4 1.9-5.7 4.4-4.7 5.4s16.7.2 18.5-.9c2.2-1.5 3.2.3 3.2 5.9 0 4.7-.2 5.4-2 5.4-1.7 0-2-.7-2-4 0-2.2-.4-4-.9-4-1 0-2.4 5-1.9 7 .2.8-.5 1.6-1.4 1.8-1.4.3-1.8-.3-1.8-3 0-1.8-.4-3.9-.9-4.7-1.3-2-3.1-.4-3.1 2.8 0 1.6-.6 3.4-1.4 4-1.1.9-1.5.4-2-2.8-.3-2.1-1.3-4.4-2.1-5.1-2.5-2.1-3 1.5-.7 6 2.1 4.3 1.3 5.1-2.6 2.4-1.4-1-2.2-2.5-2.2-4.5s-.4-2.9-1.2-2.6c-.9.2-1.2 1.9-1 4.6.3 3.6.1 4.1-1.7 4.1s-2.1-.6-2.1-3.9c0-2.2-.4-4.2-.9-4.5-1-.6-2.1 2.6-2.1 6.1 0 4-2.8 2.6-3.5-1.7-.4-2.5-1.2-4-2.1-4-.8 0-1.4-.4-1.4-1 0-1.2 4.4-2.4 6.2-1.7 1.6.5 4.8-1 4.8-2.3 0-.6-2.7-1-6-1-3.8 0-6 .4-6 1.1 0 .8-1.7.9-5.7.4-3.2-.3-12.1-1-19.8-1.4-7.7-.4-14.8-1.1-15.7-1.5-1.8-.8-2.3 0-1.9 3.1.1.6-.3 1.4-.9 1.8-.6.4-1-.8-1-3 0-2.3-.4-3.5-1.2-3.3-1.4.5-1.9 3.6-.7 4.4.5.3-.7 2.1-2.6 4-3.2 3.1-4 3.4-7.3 2.8-2-.4-4.6-.7-5.7-.6-1.8.1-1.8 0-.2-.9.9-.6 1.7-1.5 1.7-2 0-.6-.4-.7-1-.4-.5.3-1 .2-1-.4 0-1.3-6.1.5-7.1 2.1-.9 1.4-.8 1.6-3.3-3.5-1.5-3-2.4-3.6-4-3.2-2.1.6-2.1.6-.1-1 2.4-1.9 1-4.8-2.6-5.3-1.9-.3-2.2-.1-1.1.9 2.1 2.2 1.4 5.6-1.7 7.8-1.6 1.2-3.4 2.1-3.9 2.1-.6 0-1.3.6-1.5 1.2-.3.7-.6.3-.6-.9-.1-1.2.7-2.7 1.7-3.3 1.5-1 1.5-1.1 0-.6-.9.3-3.3.8-5.2 1.2-2 .3-4 1.3-4.4 2.1-.7 1.1-1.4 1.2-3.7.3-1.6-.6-3.1-.7-3.4-.3-.9 1.2-3.1 1.4-3.1.3 0-1.8-1.8-1-2.3 1-.7 2.5-5.7 2.9-5.7.4 0-1.2-.6-1.5-2.2-.9-1.3.4-3.1.7-4 .8-1 .1-1.8.4-1.8.8 0 1.5-4 1.6-5.7.2-1.7-1.4-1.7-1.4 0-.9 2.2.7 4.7-.3 4.7-1.8 0-2.1 10.7-5.6 17.2-5.6 4.9 0 6.8-.8 6.8-3 0-2.7-8.4-4.3-9.2-1.8-.3.8-2.3 1.2-5.8 1-3.5-.1-5.7.2-6.2 1-.6 1-.8 1-.8 0 0-1.9-3.8-1.4-5 .8-1 1.9-2 1.9-24 1.6-18.2-.3-22.8-.1-22.4.9.3.7-.2 1.9-1.1 2.8-.8.9-2 2.6-2.5 3.9-.9 2-1 1.8-.6-1.2.3-1.9.2-7.2-.2-11.7l-.7-8.2-8.1 4.7zm17.6 10.9c-.8.3-2.2 1.1-3 1.7-1.3 1-1.3.9-.1-.7.7-.9 2.1-1.7 3-1.6 1.3 0 1.4.1.1.6zm154.3 2.7c2.2 1.7 2.2 2.8-.3 4.4-1.9 1.2-2 1.1-1.4-1.3.5-2 .3-2.5-1.3-2.5-3.2 0-6.7 4.4-5.9 7.5.7 2.8 4.5 4.8 7.3 3.9 1.5-.5 1.6-.4.3.5-2.4 1.7-7.5 1.3-10.4-1-4.4-3.5-3.2-10.1 2.4-12.2 2.7-1 7.5-.7 9.3.7zm13.4 1.8c1.3 1.8 3.6 9.9 2.9 10.5-.3.3-1.3.2-2.3-.2-1-.5-2.2-.7-2.6-.6-.5.1-.6-.3-.3-.8s.3-2.3 0-4c-.6-2.7-1.1-3.1-3.7-3.1-4.5 0-1.3-2.3 3.9-2.9.6 0 1.6.5 2.1 1.1zm85.7 1.9c-.3.5-1 .7-1.5.3-.5-.3-.7-1-.3-1.5.3-.5 1-.7 1.5-.3.5.3.7 1 .3 1.5zM321 428c0 .5-.2 1-.4 1-.3 0-.8-.5-1.1-1-.3-.6-.1-1 .4-1 .6 0 1.1.4 1.1 1zm15.7.6c-.3.3-1.2.4-1.9.1-.8-.3-.5-.6.6-.6 1.1-.1 1.7.2 1.3.5zm49.8.4c.3.5.2 1-.4 1-.5 0-1.3-.5-1.6-1-.3-.6-.2-1 .4-1 .5 0 1.3.4 1.6 1zm144.5 0c0 .5-.4 1-1 1-.5 0-1-.5-1-1 0-.6.5-1 1-1 .6 0 1 .4 1 1zm-84.6 3.1c-1.8 2-1.8 2.1.1 3.6 1.9 1.4 1.9 1.4-1 1.1-5.1-.5-3.9-6.8 1.3-6.8 1.2 0 1.1.5-.4 2.1zM313.7 437c.1 1.6-.2 3.2-.7 3.5-.6.4-1-.9-1-2.9 0-4.3 1.4-4.8 1.7-.6zm227.4 3.6c6.9 2.8 15.2 7.3 15.7 8.6.2.5.8.5 1.3.2 1.5-.9 6.1.5 5.4 1.6-.4.7-1.4.6-2.7-.1-1.7-.9-2.3-.8-3 .5-.8 1.5-1.2 1.5-3.8-.4-3.8-2.7-4-2.6-4.1 1.7 0 2.1-.3 3.2-.6 2.5-.2-.6-.9-.9-1.4-.6-.6.4-.6 1.1.1 1.9.8.9.6 1.4-.5 1.9-1.1.4-1.5-.2-1.6-2.2-.1-2.8-.4-5.2-1.3-8.6-.6-2.4-6.4-6.6-8.9-6.6-1.5 0-1.6.3-.7 2.1.7 1.1.9 2.3.7 2.5-.3.3-1.1-.8-1.8-2.5-.7-1.6-1.6-2.8-2-2.5-.4.2-.9-.3-1.3-1.1-.8-2.3 3.1-1.9 10.5 1.1zm50.2 1.8c1.9 2.8 1.3 3.6-2.5 3.6-2.1 0-3.1-.6-3.7-2.3-1.1-2.8-.6-3.7 2.3-3.7 1.4 0 3 1 3.9 2.4zm-53.3 10c0 .3-.4.8-1 1.1-.5.3-1 .1-1-.4 0-.6.5-1.1 1-1.1.6 0 1 .2 1 .4zm-322.7 10.3c-.7.2-1.9.2-2.5 0-.7-.3-.2-.5 1.2-.5s1.9.2 1.3.5zm333 9c-.7.2-1.9.2-2.5 0-.7-.3-.2-.5 1.2-.5s1.9.2 1.3.5zm-10.3 1.7c0 .2-1.3.6-3 .8-1.6.3-3 .1-3-.4 0-.4 1.4-.8 3-.8 1.7 0 3 .2 3 .4zm-51.6 5.1c1.9 1.8 2.2 2.5 1.2 2.5-.9 0-1.6.3-1.7.7 0 .5-.2 2.8-.4 5.3-.1 2.5-1 7.4-1.8 11-1.4 5.8-1.5 6.1-1.6 2.6-.1-3.3-.4-3.8-2.1-3.3-1.1.3-2 .1-2-.4s.9-.9 2.1-.9c1.1 0 1.8-.4 1.5-.9-.3-.4-1.7-.6-3.2-.3-3.5.6-4.4-1-4.4-8.8 0-4.5-.3-6-1-5-1 1.5-2.4 10.8-2.3 14.7 0 2.5-1.2 3.1-2 .9-.3-.8-.4-4.2-.3-7.6.2-5.7.5-6.4 3.6-8.8 1.9-1.5 4.8-2.8 6.4-3 1.6-.1 3.2-.4 3.4-.7 1-.9 1.9-.5 4.6 2zm31.6-.5c0 .5-.8 1-1.7 1-1.5 0-1.6-.2-.3-1 1.9-1.2 2-1.2 2 0zm-19.8 4.3c.4.9 1.7 1.2 3.2 1 2-.4 2.5 0 3.1 2.7.8 3.5-.1 5.2-1.5 3-.8-1.2-1-.9-1 1 0 1.4-.5 3.2-1.1 4-.9 1.2-1 1-.5-.9.6-2.8-.3-8.1-1.4-8.1-.4 0-1 1.4-1.4 3-.5 2.7-.8 3-2.6 2-1.1-.6-2-1.7-2-2.4 0-.8-.7-1.6-1.5-2-.8-.3-1.5-1.7-1.5-3.1 0-2.3.3-2.5 3.7-2.1 2 .3 4 1.1 4.5 1.9zm-2.2 10.2c.7.9.8 1.5.2 1.5-.5 0-1.2-.7-1.6-1.5-.3-.8-.4-1.5-.2-1.5s.9.7 1.6 1.5zm48 1.5c2.2 1.1 4.4 2 4.9 2 .6 0 3.4 1.4 6.2 3.2 2.9 1.7 8.4 3.9 12.3 4.9 3.9 1 6.5 1.8 5.7 1.8-1 .1-1.1.4-.2 1.5 1.9 2.3-.6 3-3.5 1.1-2.7-1.7-4.2-1.2-7 2.4-.7 1-1.7 1.2-3 .6-1-.5-2.1-.9-2.4-.9-.3-.1-2-.7-3.7-1.5-2.8-1.1-3.3-1.8-3.3-4.8 0-3.9-1.5-7.3-3.3-7.3-1.7 0-9.5-4.9-7.9-5 .7 0 3 .9 5.2 2zm-302.1 9.8c-.5 1.3-1.7 2.6-2.7 2.9-1.5.4-5.2 6.6-5.2 8.9 0 .9-13.5 15.4-14.4 15.4-.2 0-1.8 1.4-3.5 3.1-3.7 3.6-4 6.6-.8 7.2 1.6.3 1.3.5-1 .6-3.3.1-4.3 1.4-2.2 2.7.8.4.8.9-.1 1.8-.8.8-1.3.7-2.1-.4-.7-1.1-.8-.8-.4 1.1.5 1.9.2 2.8-.9 3.2-1.1.4-1.6.1-1.6-1 0-1.2-.5-1.1-2.3.8-3.8 4-9.1 7.9-11.3 8.5-1.2.3-2.6 1.4-3 2.4-1.3 2.6-7.4 9.1-11.9 12.4-3.8 2.9-3.8 2.6-.5-2.4 1.9-3 2.5-9 .9-9-.8 0-.8-.4.1-1.5.6-.8.9-2.3.5-3.5-.4-1.1-.2-2 .4-2 1.5 0 1.4-2.7-.1-3.4-.9-.3-.8-.8.5-1.6 1.1-.7 1.7-2.4 1.7-5.1 0-3.2.3-3.9 1.8-3.7 1.2.2 1.8-.5 2-2.3.2-1.7 1.2-3.1 2.8-3.8 3.1-1.4 5.4-1.4 5.4-.1 0 .5-.7 1-1.5 1s-1.5.4-1.5 1c0 1.3 6.1 1.3 9.5 0 1.5-.6 2.9-1.8 3.2-2.8.2-1 1.5-1.9 3-2 3.4-.3 8.1-4.2 20.5-17.1 5.8-6.1 11.4-11.1 12.3-11.1 1.2 0 1.5-.5 1.1-1.6-.3-.8-.3-3.4.1-5.7l.7-4.2.7 4.5c.3 2.5.2 5.6-.2 6.8zm38.1-6.6c0 .7-.5 2-1 2.8-.8 1.2-1 .9-1-1.3 0-1.5.5-2.7 1-2.7.6 0 1 .6 1 1.2zm11 .7c0 .6-.4 1.3-1 1.6-.5.3-1-.1-1-.9 0-.9.5-1.6 1-1.6.6 0 1 .4 1 .9zm7.2 3.1c-.6 4.1-1.2 3.8-1.2-.6 0-1.9.4-3.3.8-3 .5.3.7 1.9.4 3.6zm4.5-2c-.3 1.3 0 2 .9 2 .8 0 1.4-.6 1.2-1.4-.2-.8.2-1.5.7-1.5.6 0 .9 1.9.7 4.6-.3 5.4-1.2 7.2-1.2 2.5 0-1.8-.4-3.2-1-3.2-1.3 0-3.2 3.8-2.5 5 .3.6.1 1-.4 1-.7 0-1.1-2.3-1.1-5.5 0-4.4.3-5.5 1.6-5.5 1.1 0 1.5.6 1.1 2zm19.3 3.7c0 2.7-.4 4.3-.8 3.6-.8-1.2-.4-8.3.4-8.3.2 0 .4 2.1.4 4.7zm5-2.7c0 .5-.4 1-1 1-.5 0-1-.5-1-1 0-.6.5-1 1-1 .6 0 1 .4 1 1zm274.4 21.5c1.1.8 1.8 1.7 1.5 1.9-.2.3-1.5-.4-2.9-1.4-1.4-1.1-2-2-1.5-1.9.6 0 1.9.6 2.9 1.4zm-252.9 18.2c-1.6.3-3.3 1-3.7 1.6-.4.6-1 .8-1.5.4-1.2-1.2 1.9-2.7 5.2-2.5l3 .1-3 .4zm7.5 2.3c-.8.5-1.9 1-2.5 1-.5 0-.3-.5.5-1s2-1 2.5-1c.6 0 .3.5-.5 1zm-179.2 4.2c-1 4.7-1.7 6-1.9 3.5-.4-5.7 0-7.7 1.5-7.7 1.1 0 1.2.8.4 4.2zm59.2-2.8c0 .8-5.1 1.3-5.6.5-.3-.5.9-.9 2.5-.9 1.7 0 3.1.2 3.1.4zm-15.5 1.6c-.3.5-2 1-3.6 1-1.8 0-2.8-.4-2.4-1 .3-.6 2-1 3.6-1 1.8 0 2.8.4 2.4 1zm6.3-.3c-1 .2-2.6.2-3.5 0-1-.3-.2-.5 1.7-.5s2.7.2 1.8.5zm154.2.2c0 .5-.9.7-2 .4-1.1-.3-2-.7-2-.9 0-.2.9-.4 2-.4s2 .4 2 .9zm2.8 9.2c-.3 6.1-.4 6.4-2.9 6.7-2.3.3-2.6-.1-2.7-2.7 0-1.6.6-3.5 1.4-4.2 1.1-.9 1.4-.8 1.4.5 0 .9.4 1.6 1 1.6.5 0 .9-1.1.8-2.5-.2-1.9-.7-2.4-2-1.9-2.3.7-2.3-1.1 0-3.5 2.5-2.7 3.3-1.1 3 6zm-44.5-5.1c-.3 1.1-1.2 2-1.9 2-1.7 0-1.8-1.2-.2-2.8 1.8-1.8 2.7-1.5 2.1.8zm-113 .7c-.7.2-2.1.2-3 0-1-.3-.4-.5 1.2-.5 1.7 0 2.4.2 1.8.5zm88.7.3c0 .5-1.2 1-2.7.9-2.5 0-2.6-.1-.8-.9 2.7-1.2 3.5-1.2 3.5 0zm18-.2c0 .4-1.9.6-4.2.4-7.1-.5-7.7-1-1.5-1.1 3.1 0 5.7.2 5.7.7zm-123 4.3c0 .5-.4.9-1 .9-.5 0-1-.7-1-1.6 0-.8.5-1.2 1-.9.6.3 1 1 1 1.6zm94.1.2c-1.3 1.3-2.6.3-1.6-1.2.3-.6 1.1-.8 1.7-.5.6.4.6 1-.1 1.7zm11.4-1.3c-.3.5-1.6 1-2.8 1-1.8 0-1.9-.2-.7-1 2-1.3 4.3-1.3 3.5 0zm13.3.4c.3.3-2.2.6-5.6.6-3.4 0-6.2-.4-6.2-1 0-1 10.7-.6 11.8.4zm26.7-.4c-.3.5-1.4 1-2.3 1-1.5 0-1.5-.2-.2-1 2-1.3 3.3-1.3 2.5 0zm-55.2.7c-.7.2-2.1.2-3 0-1-.3-.4-.5 1.2-.5 1.7 0 2.4.2 1.8.5zm303.9 9.9c4 4.7 7.3 9.1 7.3 9.7 0 2.5-3 1-6.1-3-1.8-2.3-3.4-3.9-3.7-3.7-.3.3-1.9-.1-3.5-1-2.3-1.2-3.1-2.4-3.4-5.3-.3-2.1-.8-4.6-1.3-5.7-1.7-3.9 3.3.4 10.7 9zM339 555c0 .5-.5 1-1.1 1-.5 0-.7-.5-.4-1 .3-.6.8-1 1.1-1 .2 0 .4.4.4 1zm11-.2c0 1.1-4.5 3.2-6.7 3.2-.9 0-2.5.7-3.5 1.7-1.9 1.7-3.9 1-2.2-.7.7-.7 8.3-3.8 12.2-4.9.1-.1.2.3.2.7zm-34 1.2c0 .5-.5 1-1.1 1-.5 0-.7-.5-.4-1 .3-.6.8-1 1.1-1 .2 0 .4.4.4 1zm-18 1.4c.8.1-1.1.4-4.3.7-3.5.2-5.7 0-5.7-.6 0-.9 5.3-1 10-.1zm6.7.3c-.9.9-2 1.3-2.4.9-.4-.4-.1-1.1.7-1.6 2.5-1.6 3.5-1.1 1.7.7zm7-1.1c-.3.3-1.2.4-1.9.1-.8-.3-.5-.6.6-.6 1.1-.1 1.7.2 1.3.5zm43.8 1.4c-.3.5-1.1 1-1.6 1-.6 0-.7-.5-.4-1 .3-.6 1.1-1 1.6-1 .6 0 .7.4.4 1zm-6.5 2.4c-1.5 1.4-7 3.1-7 2.2 0-.8 5.3-3.5 7-3.6 1.3 0 1.3.2 0 1.4zm40.3-.8c.3.3.3 1.2 0 1.9-.6 1.7-3.3.8-3.3-1.1 0-1.4 2.1-1.9 3.3-.8zm28.1 11.9c-2.5 2.5-4 3.3-2.9 1.5.3-.6 0-1-.7-1.1-.7 0 .1-.7 1.7-1.4 4.3-2 4.7-1.8 1.9 1zM413 574c0 .5-1.5 1-3.2.9-3.1-.1-3.2-.1-.8-.9 3.5-1.1 4-1.1 4 0zm204.1 2.1c3.4 2.4 4.2 6.7 1 4.9-1.8-.9-5.6-7-4.4-7 .3 0 1.8.9 3.4 2.1zM408 577.5c0 1.1-4.6 2.7-8.8 3-3.4.2-4.1 0-2.8-.7.9-.5 2.4-.7 3.2-.4 1.8.7 4.6-.3 3.8-1.5-.3-.5.6-.9 2-.9s2.6.2 2.6.5zm9 2.5c0 .5-.5 1-1.1 1-.5 0-.7-.5-.4-1 .3-.6.8-1 1.1-1 .2 0 .4.4.4 1zm-8 4.9c0 .6-.4 1.3-1 1.6-.5.3-1-.1-1-.9 0-.9.5-1.6 1-1.6.6 0 1 .4 1 .9zm47.5 1c-.3.6-1.1 1.1-1.7 1.1-.6 0-.6-.6.2-1.5 1.4-1.7 2.6-1.3 1.5.4zm12.5-.9c0 .5-.7.7-1.5.4-.8-.4-1.5-.8-1.5-1 0-.2.7-.4 1.5-.4s1.5.4 1.5 1zm3.5 2c.3.6-.1.7-.9.4-1.8-.7-2.1-1.4-.7-1.4.6 0 1.3.4 1.6 1zM174 591.1c0 .5-.7.9-1.5.9-.9 0-1.5-.9-1.5-2.1 0-1.8.2-1.9 1.5-.9.8.7 1.5 1.6 1.5 2.1zm231.5 3.9c-.3.5-1.2 1-1.8 1-.7 0-.6-.4.3-1 1.9-1.2 2.3-1.2 1.5 0zm235.6 4.7c1.3 1.6 1.2 1.7-.3.4-1-.7-1.8-1.5-1.8-1.7 0-.8.8-.3 2.1 1.3zm-321.4 3.9c-.3.3-1.2.4-1.9.1-.8-.3-.5-.6.6-.6 1.1-.1 1.7.2 1.3.5zm27.6 5.1c-.7.2-2.1.2-3 0-1-.3-.4-.5 1.2-.5 1.7 0 2.4.2 1.8.5zm28.7 5.2c0 .4-1.1.6-2.5.3-1.4-.2-2.5-.6-2.5-.8 0-.2 1.1-.4 2.5-.4s2.5.4 2.5.9zm-194 9.5c0 .2-.7.7-1.6 1-.8.3-1.2.2-.9-.4.6-1 2.5-1.4 2.5-.6zm75.8.3c-1 .2-2.6.2-3.5 0-1-.3-.2-.5 1.7-.5s2.7.2 1.8.5zm-113.5 3.8c-.3.9-.8 1.4-1 1.1-.3-.3-.2-.9.2-1.5.9-1.6 1.5-1.3.8.4zM247 630c0 .5-.5 1-1.1 1-.5 0-.7-.5-.4-1 .3-.6.8-1 1.1-1 .2 0 .4.4.4 1zm38.7-.4c-.3.3-1.2.4-1.9.1-.8-.3-.5-.6.6-.6 1.1-.1 1.7.2 1.3.5zm101 3.6c-.3.8-.6.5-.6-.6-.1-1.1.2-1.7.5-1.3.3.3.4 1.2.1 1.9zm-72.3 1.7c2.9 1.1.4 2.2-3.3 1.5-1.7-.4-2.8-1-2.5-1.5.6-1.1 3.1-1.1 5.8 0zm-38.4 1c0 1-3 2.4-3.7 1.7-.3-.3-.2-.9.2-1.5.8-1.3 3.5-1.5 3.5-.2zm24 4.1c0 .5-.4 1-1 1-.5 0-1-.5-1-1 0-.6.5-1 1-1 .6 0 1 .4 1 1zm38 .7c0 1.2-.8 1.8-2.2 1.9-1.3.1-3.4.5-4.8.8-1.8.5 3.6-2.9 6.8-4.3.1-.1.2.7.2 1.6zm-34 1.9c0 .8-.7 1.4-1.5 1.4-1.5 0-2.1-2.1-.9-3.3 1-.9 2.4.2 2.4 1.9zm36 3.9l.2-3 .7 3c.5 2.4.3 3.2-1.3 3.8-1.1.4-2.7.5-3.5.2-1.4-.6-1.4-.8.2-1.6.9-.6 1.8-2 1.8-3.2.1-1.7.3-1.5.9.8l.8 3 .2-3zm-20.7 5.9c-1 .6-2.2 1.1-2.7 1.1-1.8 0-1.8 2.5 0 2.5 2.3 0 1.5.6-1.9 1.4l-2.8.7 1.7-3.2c.9-1.7 2.8-4.3 4.2-5.6l2.7-2.5.3 2.3c.3 1.4-.3 2.6-1.5 3.3zm11.7-.4c0 .5-.4 1-1 1-.5 0-1-.5-1-1 0-.6.5-1 1-1 .6 0 1 .4 1 1zm-140.9 2.4c3 1.3 6.3 2.7 7.4 3.1 1.9.7 1.9.8-.5 1.8-1.4.6-2.7 1.4-3 1.7-.3.4-3.6 1.4-7.3 2.3-6.7 1.6-7 1.6-10.5-.3l-3.7-2.1 3.5.6 3.5.7-3-2.5-3-2.5 2.9.5c2 .4 2.7.2 2.2-.6-.4-.6-.2-1.1.3-1.1.6 0 1.1-.4 1.1-.9 0-.6-1.7-.7-3.7-.4-2.1.3-3.5.3-3.1-.1.3-.4 2.8-1.1 5.5-1.6 2.6-.4 5.1-.8 5.4-.9.4 0 3.1 1 6 2.3zm144.6-.2c-.3.8-.6.5-.6-.6-.1-1.1.2-1.7.5-1.3.3.3.4 1.2.1 1.9zm-165 2.4c-1.7.9-3.6 1.2-4.5.8-1.3-.6-.8-.9 1.8-1.4 5.4-1.1 5.7-1 2.7.6zm180 3.2c.3.9 2.7 4 5.2 6.9 2.5 2.9 6.4 7.4 8.6 10.2 2.2 2.7 4.5 5 5.1 5 .6.1 2.3 1.2 3.7 2.5 1.5 1.4 3.6 2.7 4.7 3.1 3.3 1 3.1 1.3-8.2 11.8-2.1 2-3.8 4-3.8 4.6 0 .6-1 1.6-2.3 2.2-3 1.4-4.6 4-6.3 10.7-.8 3.1-2 6-2.7 6.4-1.4.9 10.2 6.3 15.8 7.4 2.2.4 3.3.9 2.5 1.2-.8.3-2.2 1.3-3 2.3-1.3 1.4-2.3 1.6-6 .8-6.2-1.1-6.8-1.1-4.5.7 1.9 1.6 1.9 1.6-.8 1.1-1.5-.2-3-.1-3.2.3-.3.5-1.4.6-2.5.3-2.6-.7-2.6 1.4 0 2.2 1.1.3 2 1 2 1.4 0 .5 1.4 1.1 3 1.4 2.6.6 3 1.1 3 3.9 0 4.4-.9 5.4-4.9 5.6-2.9.2-3.3 0-2.8-1.8.4-1.6-.1-2.3-1.9-3-1.6-.6-2.4-1.7-2.4-3.3 0-1.3-.3-2.6-.6-3-.9-.9-3.4.4-3.4 1.7 0 .7-1.2 2.3-2.6 3.5-2.4 2.1-2.7 2.2-4.5.5-1-.9-1.6-2.1-1.3-2.5.3-.5-.2-1.2-1-1.5-.9-.3-1.6-1.5-1.6-2.5s-.4-1.9-1-1.9c-.5 0-1-2.3-1-5 0-2.8-.4-5-1-5-.5 0-1-.7-1-1.5s.5-1.5 1-1.5c.6 0 1 .7 1 1.6 0 1 .8 1.5 2.3 1.4 3.7-.3 4.9-.1 4.2 1-.3.5-.1 1 .4 1 .6 0 1.1-.4 1.1-1 0-.5 2-2.1 4.5-3.6 4.6-2.7 5.3-4.2 3.6-8.7-1.2-3.2-6.6-8.4-10.5-10.2-4.6-2.1-9-4.8-9.9-6.3-1.2-1.8-3.4-1.5-4 .7-.8 3 4 12.1 6.3 12.1 1.1 0 2 .6 2 1.4 0 1.7-3.5 1.9-6.7.3-2.8-1.3-2.9-2.5-.5-4.3 1.6-1.3 1.5-1.4-.6-1.1-1.9.2-2.6-.6-3.8-3.8-.8-2.2-1.6-6.3-1.8-9-.3-2.8-.5-5.2-.5-5.5-.1-.3-1.8-.4-3.9-.2l-3.8.4-.3-4.3-.2-4.3 2.3 2c3.9 3.5 4.4 3.5 4-.2-.3-2-1.1-3.8-1.8-4.1-2-.7-1.7-4.3.4-5.9 1.6-1.3 1.6-1.5-.1-2.8-5.3-4.1 5-11 18.9-12.6 4.4-.5 9-1.3 10.4-1.8 2.9-1.1 5.8 0 6.7 2.6zm-188 .6c1.1 1.3 3.7 2.6 5.7 3 4.3.8 4.7 2.2.8 3.1-2.2.4-4.6-.3-9.7-2.9-7.2-3.7-7.1-3.9.6-5.5.3 0 1.5 1 2.6 2.3zm-9.8 4.5c7.4 3.9 7.4 3.9 4.3 4.6-1.8.3-3.2 1-3.2 1.4 0 .4-3.4 1.5-7.6 2.5l-7.5 1.8-9.1-4.6c-5-2.5-8.4-4.7-7.7-5 2.9-.8 14.5-2.9 17.7-3.1 1.9-.2 3.6-.6 4-.9.9-1 1.4-.8 9.1 3.3zm37.2 2.6c.5-.4.9.1.9 1 0 1.2-.4 1.3-1.7.6-1-.5-2.2-.9-2.8-.9-1.8-.1-1.6-2 .2-2.4 1-.2 1.9.2 2.1.9.2.7.8 1.1 1.3.8zm-68.1 2c1.3 1.4 2.8 2.5 3.3 2.5s2 .9 3.3 1.9l2.5 2-3.6 1c-3.3.9-4.5.6-11.1-2.5-7.2-3.4-8.6-5.4-4.1-5.4 1.2 0 2.9-.5 3.7-1 2.3-1.5 3.5-1.2 6 1.5zm534.7-.3c-.3.8-.6.5-.6-.6-.1-1.1.2-1.7.5-1.3.3.3.4 1.2.1 1.9zM105 670.5c0 .8-.7 1.5-1.5 1.5-1.6 0-2-1.2-.8-2.3 1.1-1.2 2.3-.8 2.3.8zm124.6 1.2c-1 1-1.9-.5-1-1.8.6-1.1.8-1.1 1.2 0 .2.7.1 1.5-.2 1.8zm-22.1.2c-.6.4-3.1 1.4-5.7 2.1-3.6.9-4.8 1.7-4.8 3.1 0 1.1-.4 1.9-1 1.9-.8 0-1.6-5-.7-5 .1 0 2-.7 4.2-1.5 4.4-1.6 9.5-2 8-.6zm81 1.1c-.3.5-1.1 1-1.6 1-.6 0-.7-.5-.4-1 .3-.6 1.1-1 1.6-1 .6 0 .7.4.4 1zm7.5 2.2c0 .5 1.2 2 2.8 3.3 2 1.8 2.3 2.4 1 2.5-1.1 0-1.5.6-1.1 1.8.6 2.5-3.5 2.3-4.9-.1-.6-1.2-.6-1.7.3-1.5.6.2 1.3-.2 1.6-.9.3-.7-.5-1-2.1-.9-2.8.3-4.1-1.5-2.3-3.3.8-.8.8-1.1-.1-1.1-.7 0-1.2-.4-1.2-.8 0-.5 1.4-.7 3-.4 1.7.2 3 .8 3 1.4zm-13-.8c0 .2-.7.6-1.5 1-.8.3-1.5.1-1.5-.4 0-.6.7-1 1.5-1s1.5.2 1.5.4zm19.5.6c.3.5-.3 1-1.4 1-1.1 0-2.3-.5-2.6-1-.3-.6.3-1 1.4-1 1.1 0 2.3.4 2.6 1zm352.8 14.7c-.3 1.3-.8 2.1-1.2 1.9-1-.6-1.3-15.4-.4-16.9.9-1.4 2.3 11.7 1.6 15zM192 678.1c0 1.7-.4 2.8-1 2.4-.5-.3-.7-1.2-.3-2 .6-1.9 0-1.8-6.1 0-5.7 1.7-6.6 1.8-6.6.7 0-.7 9.8-3.7 13.3-4.1.4-.1.7 1.3.7 3zm-87.5 6.6c-.4 4.3-.7 8.7-.7 9.8.1 1.9 0 1.8-1.9-.4-1.4-1.7-1.9-3.9-1.9-7.8 0-6.1 1.3-9.3 3.7-9.3 1.4 0 1.5 1 .8 7.7zm198-6.7c.3.5.1 1-.4 1-.6 0-1.1-.5-1.1-1 0-.6.2-1 .4-1 .3 0 .8.4 1.1 1zm-29.2.7c-.7.2-1.9.2-2.5 0-.7-.3-.2-.5 1.2-.5s1.9.2 1.3.5zm-7.7 1.8c-1.1.8-2.9 1.5-4 1.4-1.5 0-1.1-.4 1.4-1.4 4.5-1.7 4.9-1.7 2.6 0zm18.7 2.1c-.3.8-.9 1.4-1.4 1.4-.5 0-.9.7-.9 1.5s-.5 1.5-1.1 1.5c-.5 0-.8-.4-.5-.9.3-.5-.6-1.7-2.1-2.7-2.4-1.5-2.5-1.8-.9-2.4 3-1 7.5 0 6.9 1.6zm-117.7-.1c-1.1.8-3.6 1.8-5.5 2.1-4.3.8-6.4 2.2-5.7 4.1.3.7-.1 1.3-.8 1.3-.9 0-1.2-.8-.9-2.4.5-2.5 2.5-3.6 9.3-5.5 5-1.3 5.8-1.2 3.6.4zm89 1c1 .8 1.4 1.5.7 1.5-.6 0-1.4-.4-1.8-1-.3-.5-1.3-.6-2.2-.3-1.1.4-1.4.3-.9-.5.9-1.6 1.8-1.5 4.2.3zm22 1.2c1.6 1.7 1.6 1.8.1 2.1-2 .4-2.2 1.3-.5 3 .7.7.9 1.2.6 1.2-.4 0-2.1-1.8-3.8-4l-3.2-4h2.5c1.4 0 3.3.8 4.3 1.7zm-31.6-.3c0 .2-.7.6-1.5 1-.8.3-1.5.1-1.5-.4 0-.6.7-1 1.5-1s1.5.2 1.5.4zm23.3 1.3c-.7.2-1.9.2-2.5 0-.7-.3-.2-.5 1.2-.5s1.9.2 1.3.5zM151 688.4c0 1.4-.4 2.8-1 3.1-.6.4-1-.7-1-2.4s.5-3.1 1-3.1c.6 0 1 1.1 1 2.4zm90.4-.9c-.4 1 0 1.5 1.5 1.5 3 0 2.6 2.5-.6 4.8-4.5 3.1-7.2 3.6-9.4 1.6-2.9-2.6-2.3-3.7 1.7-3 3.3.7 3.5.6 2.4-1.3-.6-1.2-2-2.1-3.2-2.1-4.4 0 0-1.7 7.4-2.9.4 0 .5.6.2 1.4zm55.2-.6c-.4.5-.1 1.1.6 1.3.6.2.8 1 .4 1.7-.5.7-1.5 1-2.3.7-1.7-.7-4.6 1.2-3.8 2.4.2.4-.9.7-2.5.8-2 0-3-.4-3-1.4 0-.8.5-1.3 1.1-1.2.6.2 1.4-.3 1.7-1.1.3-.8 0-1.1-.7-.7-.6.4-1.1.2-1.1-.3 0-.6.3-1.1.8-1.2 5.2-.4 7.4-.8 7.9-1.3.9-.9 1.5-.7.9.3zm-149.8.7c-1.1 1-10.8 3.2-10.8 2.4 0-.4 1.7-1.2 3.8-1.8 4.3-1.1 7.8-1.5 7-.6zm83.5 2.4c-.6 2.2-1.6 2.3-7.8 1.3l-4-.7 5.5-1.1c3-.7 5.8-1.3 6.2-1.4.3 0 .4.8.1 1.9zm-17.7 2.6c1.8 1.2 3.7 1.5 7.2 1 6.2-.8 10.8.8 12.7 4.5 2 3.8 1.9 4.5-.7 4.6-1.3 0-1.7-.1-1-.4 1.7-.6 1.5-3.8-.3-5.3-1.1-.9-2.6-.9-6.5-.1-2.9.6-5.6.9-6.1.5-.5-.3-.9 0-.9.5 0 .6.4 1.1.8 1.1.5 0 .7 1.3.4 2.9-.3 2.4.1 3.2 2.4 4.6 1.6.9 2.1 1.4 1.2 1.1-1.2-.3-1.8 0-1.8.9 0 1.7-.9 1.9-3 .5-.8-.5-1.1-1.2-.7-1.7.5-.4 1.3-.1 1.8.7.9 1.3 1 1.3.6 0-.2-.8-1.3-1.6-2.5-1.6-1.8-.1-2.1.3-1.7 2.5.4 2.2.3 2.2-1-.7-1.6-3.4-3-3.8-8-2.4-3.8 1.1-5.5.5-5.5-1.8 0-3-3.2-5.7-8.5-7.1l-5-1.3 9-1.8c4.9-1 9.5-1.6 10.2-1.4.7.3 1.5.1 1.8-.4.9-1.4 2.2-1.2 5.1.6zM95.5 694c-.3.5-1.4 1-2.3 1-1.5 0-1.5-.2-.2-1 2-1.3 3.3-1.3 2.5 0zm188 0c.3.5.2 1-.4 1-.5 0-1.3-.5-1.6-1-.3-.6-.2-1 .4-1 .5 0 1.3.4 1.6 1zm128.8 1.5c-.3.9-.8 1.4-1 1.1-.3-.3-.2-.9.2-1.5.9-1.6 1.5-1.3.8.4zm242.7 3.2c-.1 2.1-.7 6.8-1.4 10.5-.9 4.8-1 8.6-.4 13 .5 3.5.7 9.7.4 13.8-.2 4.1-.1 9.5.4 12s1.2 8 1.6 12.3l.6 7.7h-2.6c-1.9 0-2.6-.5-2.6-1.9 0-1.1-.4-2.2-.9-2.5-.5-.4-.9-2.5-.9-4.9 0-2.3-.6-5.6-1.2-7.2-1.7-4.4-1.9-7.5-.5-7.5.8 0 1.1-.8.8-2-.3-1.1-.9-1.7-1.4-1.4-.5.3-.9-.4-.9-1.5 0-1.2.4-2.1.9-2.1 1.6 0 2.1-4.4.6-6-.8-.9-1.5-2.3-1.5-3.2 0-3 2.2-7.8 3.6-7.8.8 0 1.5-1.1 1.6-2.5.4-5.5.7-8.3 1.6-14.5.5-3.6.8-6.8.5-7.3-.2-.4.1-.7.6-.7.6 0 1.1 1.7 1.1 3.7zm-247.8-.5c-.6.6-1.5.8-1.9.4-.4-.4-.1-1.1.7-1.6 1.9-1.2 2.7-.3 1.2 1.2zm-218.7-.2c3 1.1 2.5 3-.8 3-2 0-2 .1-.2 1.3 1.8 1.4 1.3 4.3-.6 3.2-.5-.4-.9.1-.9.9 0 2.8-1.7 1.7-2.6-1.6-.8-2.6-1.9-3.6-5.4-4.9-4.5-1.7-4.5-1.7-1.5-2.1 5.5-.9 9.4-.8 12 .2zm38 0c-.3.5-1.4 1-2.3.9-1.4 0-1.3-.2.3-.9 2.7-1.1 2.7-1.1 2 0zm162.5.6c0 .8-.5 1.2-1 .9-.6-.4-.8-1.1-.5-1.6.9-1.4 1.5-1.1 1.5.7zm259.5 4.4c.3.5.2 1-.4 1-.5 0-1.3-.5-1.6-1-.3-.6-.2-1 .4-1 .5 0 1.3.4 1.6 1zm-419.2 2.7c-.7.2-1.9.2-2.5 0-.7-.3-.2-.5 1.2-.5s1.9.2 1.3.5zm420.2.3c.3.5.1 1-.4 1-.6 0-1.1-.5-1.1-1 0-.6.2-1 .4-1 .3 0 .8.4 1.1 1zm-541 .5c-6.3 2.5-36.5 10.8-37.1 10.2-.8-.8 33.3-10.6 36.6-10.6.8 0 1.1.2.5.4zm96.5 3.4c0 .5-.6 1.4-1.4 2-1 .9-1.5.8-1.9-.3-.3-.8-.3-1.7 0-2 .9-.9 3.3-.7 3.3.3zm-97.2 5.8c0 5.7-.1 5.7-1.2 2.3-1.2-3.6-1-8 .4-8 .4 0 .8 2.6.8 5.7zM188 711c0 .5-.4 1-1 1-.5 0-1-.5-1-1 0-.6.5-1 1-1 .6 0 1 .4 1 1zm205 4.5c6.3 1.5 11.6 3 11.8 3.4.1.5 1.3.6 2.6.4 2.2-.5 15 3.6 23.1 7.3 5.2 2.4 5 2.3 3.7 3.6-1.2 1.2-7 1.3-10.4.3-1.2-.5-1.8-.2-1.6.7.3 1.3-2 1.4-5.2.1-1.2-.4-1.1-.7.5-1.2 1.4-.6-.5-1.5-7.3-3.6-8.8-2.7-10.7-3.8-7.9-4.8.6-.2.9-.7.5-1.1-.3-.4-1.5-.3-2.6.3-2.9 1.6-6 1.4-12.8-.8-3.2-1-8.1-2.5-10.8-3.2l-4.8-1.2 3.3-1.8c1.9-1 4.1-1.6 4.9-1.4.8.3 6.7 1.6 13 3zM101 714c0 .5.7 1 1.5 1 1.7 0 2 1.6.5 2.5-.5.3-1 1.5-1 2.5s-.5 2.2-1.1 2.6c-.8.4-.9 0-.4-1.5.7-2.2-.1-2.6-2.9-1.5-2.1.8-2.1 3.4 0 3.4.9 0 1.2.5.8 1.2-.4.6-.3.8.4.4.6-.3 1.3-.2 1.7.4.3.5.1 1-.5 1s-.8.4-.5 1c.3.5-.1 1-.9 1s-2.2 1.2-3 2.7c-1.4 2.6-1.5 2.7-1.6.5 0-1.2-.3-2.2-.7-2.2-1.6 0-4.3 3.5-4.3 5.6 0 1.3-.5 2.6-1.2 3-.7.4-.8.3-.4-.4s.2-1.2-.4-1.2c-.7 0-1-.6-.7-1.4.8-2.2-.4-2.8-2.7-1.3-1.2.7-3.6 1.3-5.3 1.2-2.4 0-3.3.5-3.3 1.6 0 2.4-4.2 4-6.3 2.4-2-1.4-2.3-3.5-.4-3.5.8 0 .8-.3-.2-.9-1.7-1.1-.7-4.1 1.4-4.1 1.4 0 2-1.6 1.7-5.2-.1-.9.5-2.2 1.3-2.8 1.1-.9 1.5-.9 1.5-.1 0 2.5 3.8 1 4.9-1.9.5-1.7 1.6-3 2.4-3 .8 0 2.9-.3 4.6-.6 2.4-.5 3.1-.3 3.1 1 0 2.3 3.1 2 3.7-.4.4-1.5 1.1-1.9 2.4-1.5 1.1.4 1.9.3 1.8-.2-.3-1.8.2-2.3 2.1-2.3 1.1 0 2 .4 2 1zm89.9 1.7c.2.2-.5.3-1.7.3-1.4 0-2.2-.6-2.2-1.6 0-1.4.3-1.5 1.8-.3.9.7 1.9 1.5 2.1 1.6zM436 733.8c0 2.2-.7 3.2-3.5 4.5-4.2 2-4.5.8-.9-4 3.1-4 4.4-4.2 4.4-.5zm-43.8 2.8c7.3 2 13.6 4.2 14 4.8.4.6.8 2.1.8 3.3 0 2.3 2.3 3.2 3.5 1.3.3-.6 1.3-1 2.2-1 .9 0 3.6-1 6.1-2.1 3.3-1.7 5-1.9 7.3-1.3 2.9.9 2.7 1.1-6.9 5.2-8.2 3.6-10.6 4.2-13.6 3.6-3.2-.6-4.1-.3-6.7 2.2-2.6 2.5-2.9 2.6-2.9.8 0-2.8 3.5-8.1 5.8-8.8 1.1-.4 2.3-1.4 2.6-2.2.5-1.2-.1-1.1-2.7.5l-3.4 2.1-9.4-2.9c-5.2-1.5-11.4-3.4-13.9-4.1l-4.5-1.3 3.8-1c2-.5 3.7-1.3 3.7-1.8 0-1.2-.8-1.4 14.2 2.7zM437 739c0 .5-.4 1-1 1-.5 0-1-.5-1-1 0-.6.5-1 1-1 .6 0 1 .4 1 1zm-92.6 8.6c2.2.8 2 2.4-.2 2.4-1 0-2.3.5-2.9 1.1-.8.8-1.3.8-1.7 0-.4-.6 0-1.1.8-1.1.9 0 1.6-.7 1.6-1.5 0-1.7.2-1.8 2.4-.9zm85.3 2.2c.4.8-.2 2.1-1.3 2.9-1.6 1.2-2 1.2-3.1-.2-1-1.5-1.3-1.5-2.3.4-1.3 2.4-2.8 2.7-3.6.7-.6-1.6 2.1-5 4.6-5.8 2.2-.7 5.1.3 5.7 2zm-77.9 2.2c.7 1.2 1 2.5.7 3-.4.6-.1 1 .6 1 1 0 1 .3.1 1.2-1.7 1.7-1.5 2.8.6 2.8 3 0 3.1.9.9 4.6-2.3 3.5-5.4 4.2-6.7 1.4-5.9-12.1-6-14.6-.7-14.1.9.1 1.7-.3 1.7-.8 0-1.8 1.4-1.3 2.8.9zm57 1.6c1.3.4 2.2 1.4 2.2 2.6 0 1.6-.3 1.7-2.1.7-1.7-.8-2-.8-1.4.1.6.9-.1 1-2.6.5-4.8-1-5.5-1.6-3.4-3.2 2-1.4 3.8-1.6 7.3-.7zM360 757c0 .5-.9 1-1.9 1-1.1 0-2.3-.5-2.6-1-.4-.6.5-1 1.9-1s2.6.4 2.6 1zm54.8 8.9c.3 6.4-.6 7.8-3.9 6.1-1.7-.9-2-1.8-1.5-4.1.5-2.8 3.5-7.8 4.6-7.9.3 0 .7 2.7.8 5.9zm66.2-3c0 1.1 6.9 4.1 9.8 4.4 2.6.2 3 2.3.5 2.5-3 .4-5.5.3-5.7 0 0-.2-2.1-2.5-4.6-5.2-2.9-3.1-3.7-4.4-2.2-3.7 1.2.7 2.2 1.5 2.2 2zm-55-1.5c0 .2-.7.7-1.6 1-.8.3-1.2.2-.9-.4.6-1 2.5-1.4 2.5-.6zm-274.3 2.8c-.3.8-.6.5-.6-.6-.1-1.1.2-1.7.5-1.3.3.3.4 1.2.1 1.9zm348.1-.9c.8 1 .5 2-1.3 4.2-1.4 1.5-2.5 3.4-2.5 4.1 0 1.7-1.5 2.5-3.4 1.8-2.3-.9-2-2.3.4-1.7 2.1.6 2.4-.2 2-4.5-.2-2.3 1.5-5.2 3-5.2.4 0 1.2.6 1.8 1.3zm-80 1.4c-.6.7-1.4 1-1.9.7-1.5-.9-1-2 1-2 1.5 0 1.7.3.9 1.3zm24.6 5.4c-.2.4-1.7 1.2-3.4 1.7-2.4.9-3 .8-3-.3 0-2 5.3-4.7 6.2-3.2.4.6.5 1.4.2 1.8zm-18.4.9c0 .5-.7 1-1.6 1-.8 0-1.2-.5-.9-1 .3-.6 1-1 1.6-1 .5 0 .9.4.9 1zm-260.6 8.5c1.1.8 1.5 1.5 1 1.5-.6 0-1.9-.7-3-1.5-1-.8-1.4-1.4-.9-1.4.6 0 1.9.6 2.9 1.4zm-31.9 1.4c-1.5 1.3-6.5 2.3-6.5 1.2 0-.5 1.2-1.2 2.8-1.4 1.5-.2 3.1-.5 3.7-.6.6 0 .6.2 0 .8zM171 783c.8.5 1.2 1.1 1 1.4-.3.2-1.4-.2-2.4-1-2.2-1.5-1-1.9 1.4-.4zm6.5 4.6l3 2.6-3.5-2.3c-4.5-2.9-4.5-2.9-3.4-2.9.5 0 2.3 1.2 3.9 2.6zm7.1 5.2c-.4.3-1.4-.2-2.4-1.2-1.6-1.8-1.6-1.8.6-.6 1.3.6 2.1 1.4 1.8 1.8zm16.4 2.4c-1.4.5-3.8.7-5.5.6-2.8-.3-2.7-.4 1.5-1.4 5-1.2 7.7-.6 4 .8zm8.6 4.3c-.1 2.6-1.2 3.3-1.8 1.3-.4-1 .9-3.5 1.8-3.8.1 0 .1 1.1 0 2.5z"/><path d="M183.8 544.7c.7.3 1.6.2 1.9-.1.4-.3-.2-.6-1.3-.5-1.1 0-1.4.3-.6.6zM189 546.2c0 .5-1.1.8-2.4.8-1.9 0-3.6 1.6-3.6 3.4 0 .1 2.4.4 5.4.5 4.7.2 5.5-.1 6.9-2.3 1.6-2.4 1.6-2.4-2.3-2.8-2.2-.2-4 0-4 .4zM199.4 549.2c-1.8 2-1.8 2.1-.1 1.5 1-.4 2.3-.7 2.8-.7s.9-.7.9-1.5c0-2.1-1.4-1.9-3.6.7zM381 559.1c0 .5.5.7 1 .4.6-.3 1-.8 1-1.1 0-.2-.4-.4-1-.4-.5 0-1 .5-1 1.1zM318 650.5c-1.1 1.3-1 1.4.4.9.9-.3 1.6-1 1.6-1.5 0-1.3-.6-1.1-2 .6zM180 656.9c0 .5.8 1.1 1.8 1.4.9.2 2.6.8 3.7 1.2 1.7.6 1.7.4-.4-1.4-2.4-2.2-5.1-2.8-5.1-1.2zM134.5 664.9c-2.5.5-2.7.8-1.2 1.4 2.7 1 3.4.9 4.1-.8.3-.8.4-1.4.3-1.4-.1.1-1.5.4-3.2.8zM127.5 667.1c-1.2 1.8.3 2.2 2 .5 1.4-1.4 1.4-1.6.1-1.6-.8 0-1.8.5-2.1 1.1zM142 668c2.8 2.2 4 2.5 4 1 0-1.1-3.3-3-5.2-3-.7 0-.2.9 1.2 2zM131 669c0 .9 4.1 3 5.8 3 .9-.1-4.1-3.9-5-4-.5 0-.8.5-.8 1zM207.9 694.6c-1.2 1.4-1.1 1.6.5 1.3 1.1-.2 2.1-1 2.4-1.7.5-1.7-1.3-1.5-2.9.4zM198.6 695.6c-.4.9-.4 1.9-.2 2.1.8.8 2.6-.8 2.6-2.3 0-1.9-1.6-1.8-2.4.2zM202.5 697c-.3.5-.1 1 .5 1s1 .6.9 1.2c-.5 2.8 1.4 4.8 4.2 4.8 1.6 0 2.9-.4 2.9-1 0-2.3-2.4-5.9-4.4-6.4-2.9-.8-3.4-.7-4.1.4zM213 702.5c0 .8.7 1.5 1.5 1.5s1.5-.7 1.5-1.5-.7-1.5-1.5-1.5-1.5.7-1.5 1.5zM90.2 722.2c-1.4 1.4-1.6 5.4-.3 6.2 2.1 1.3 4.2-.7 3.9-3.7-.3-3.4-1.7-4.4-3.6-2.5zM83.3 724.5c-.3.9-.3 1.8-.1 2.1.9.9 3.8-.8 3.8-2.2 0-1.9-2.9-1.8-3.7.1zM76.8 725.8c-1.3.2-1.8 1.3-1.8 3.8 0 4.1 2.5 4.7 4.1 1 1.3-2.9.1-5.3-2.3-4.8zM378.8 737.7c.7.3 1.6.2 1.9-.1.4-.3-.2-.6-1.3-.5-1.1 0-1.4.3-.6.6zM357 416.3c0 2 .4 2.3 3.5 1.9 3.9-.5 4.7-2.6 1.3-3.6-3.9-1-4.8-.7-4.8 1.7zM546.7 417.8c-.4.5-.3 2.6 0 4.8l.7 3.9.7-4c.7-3.8-.2-6.7-1.4-4.7zM514.8 418.6c-.4.3-.4 1.2-.1 1.9.6 1.8 3.3.7 3.2-1.4 0-1.2-.2-1.2-.6-.2-.4.9-.7 1-1.2.2-.4-.6-1-.9-1.3-.5zM163.5 588.2c-.4.9-.5 2.5-.3 3.5.4 1.7.5 1.6 1.5-.3.7-1.2.8-2.6.3-3.4-.7-1.2-1-1.2-1.5.2zM147.6 592c-.3 2.1-1.3 4.5-2.1 5.4-.8.8-1.5 2-1.5 2.6 0 .6-.7 1-1.6.8-1-.2-1.9.3-2.1.9-.3.9.8 1.3 3.5 1.3 3.5 0 4.3-.4 6.2-3.4 1.1-1.9 2.5-3.6 3.1-3.8 1.5-.5-.7-5.1-3.1-6.5-1.6-1-1.8-.7-2.4 2.7zM156.5 589.2c-.4 1-.4 2.6 0 3.5.8 1.7.8 1.7 1.2 0 .3-.9.3-2.5 0-3.5-.4-1.6-.4-1.6-1.2 0zM156 599c0 2.9-.4 4-1.5 4-1 0-1.5 1-1.5 3.2l.1 3.3 1.2-2.8c.7-1.6 1.7-2.7 2.2-2.5.6.2 1.1-1.8 1.3-4.5.2-2.8-.1-4.7-.7-4.7s-1.1 1.8-1.1 4zM126.1 615.9c-.8.5-.9 1.1-.3 1.5.5.3 1.2-.1 1.6-.9.6-1.7.6-1.8-1.3-.6zM102.8 644.7c-3.5 3.7-5.8 7.3-5.8 9 0 .8 5.5-5.2 9.1-10 3-4 .9-3.3-3.3 1z"/></svg>